<mxfile host="app.diagrams.net" modified="2023-08-02T15:19:08.590Z" agent="Mozilla/5.0 (X11; Linux x86_64; rv:107.0) Gecko/20100101 Firefox/107.0" etag="9TaOcDliRg_18A3A4d-C" version="21.6.6" type="device">
  <diagram id="C5RBs43oDa-KdzZeNtuy" name="Page-1">
    <mxGraphModel dx="1434" dy="767" grid="1" gridSize="10" guides="1" tooltips="1" connect="1" arrows="1" fold="1" page="1" pageScale="1" pageWidth="1169" pageHeight="1654" math="0" shadow="0">
      <root>
        <mxCell id="WIyWlLk6GJQsqaUBKTNV-0" />
        <mxCell id="WIyWlLk6GJQsqaUBKTNV-1" parent="WIyWlLk6GJQsqaUBKTNV-0" />
        <mxCell id="3VQRC6T0D-EXzDeNE1l7-76" value="" style="shape=flexArrow;endArrow=classic;html=1;rounded=0;strokeColor=none;fillColor=#bac8d3;dashed=1;dashPattern=8 8;" parent="WIyWlLk6GJQsqaUBKTNV-1" edge="1">
          <mxGeometry width="50" height="50" relative="1" as="geometry">
            <mxPoint x="460" y="1000" as="sourcePoint" />
            <mxPoint x="460" y="1140" as="targetPoint" />
          </mxGeometry>
        </mxCell>
        <mxCell id="zkfFHV4jXpPFQw0GAbJ--0" value="QEvent" style="swimlane;fontStyle=2;align=center;verticalAlign=top;childLayout=stackLayout;horizontal=1;startSize=30;horizontalStack=0;resizeParent=1;resizeLast=0;collapsible=1;marginBottom=0;rounded=0;shadow=0;strokeWidth=1;fontSize=20;" parent="WIyWlLk6GJQsqaUBKTNV-1" vertex="1">
          <mxGeometry x="540" y="97" width="180" height="90" as="geometry">
            <mxRectangle x="530" y="40" width="160" height="26" as="alternateBounds" />
          </mxGeometry>
        </mxCell>
        <mxCell id="zkfFHV4jXpPFQw0GAbJ--2" value="type ()" style="text;align=left;verticalAlign=top;spacingLeft=4;spacingRight=4;overflow=hidden;rotatable=0;points=[[0,0.5],[1,0.5]];portConstraint=eastwest;rounded=0;shadow=0;html=0;fontSize=16;" parent="zkfFHV4jXpPFQw0GAbJ--0" vertex="1">
          <mxGeometry y="30" width="180" height="26" as="geometry" />
        </mxCell>
        <mxCell id="zkfFHV4jXpPFQw0GAbJ--1" value="accept ()" style="text;align=left;verticalAlign=top;spacingLeft=4;spacingRight=4;overflow=hidden;rotatable=0;points=[[0,0.5],[1,0.5]];portConstraint=eastwest;fontSize=16;" parent="zkfFHV4jXpPFQw0GAbJ--0" vertex="1">
          <mxGeometry y="56" width="180" height="26" as="geometry" />
        </mxCell>
        <mxCell id="ieJgah1LAaL9jYKs5DkF-0" value="ProtocolEvent" style="swimlane;fontStyle=2;align=center;verticalAlign=top;childLayout=stackLayout;horizontal=1;startSize=30;horizontalStack=0;resizeParent=1;resizeLast=0;collapsible=1;marginBottom=0;rounded=0;shadow=0;strokeWidth=1;fontSize=20;" parent="WIyWlLk6GJQsqaUBKTNV-1" vertex="1">
          <mxGeometry x="90" y="257" width="200" height="103" as="geometry">
            <mxRectangle x="530" y="40" width="160" height="26" as="alternateBounds" />
          </mxGeometry>
        </mxCell>
        <mxCell id="ieJgah1LAaL9jYKs5DkF-1" value="static getEvent ()" style="text;align=left;verticalAlign=top;spacingLeft=4;spacingRight=4;overflow=hidden;rotatable=0;points=[[0,0.5],[1,0.5]];portConstraint=eastwest;rounded=0;shadow=0;html=0;fontSize=16;" parent="ieJgah1LAaL9jYKs5DkF-0" vertex="1">
          <mxGeometry y="30" width="200" height="26" as="geometry" />
        </mxCell>
        <mxCell id="3VQRC6T0D-EXzDeNE1l7-0" value="Network Status-Event" style="swimlane;fontStyle=2;align=center;verticalAlign=top;childLayout=stackLayout;horizontal=1;startSize=30;horizontalStack=0;resizeParent=1;resizeLast=0;collapsible=1;marginBottom=0;rounded=0;shadow=0;strokeWidth=1;fontSize=20;" parent="WIyWlLk6GJQsqaUBKTNV-1" vertex="1">
          <mxGeometry x="350" y="257" width="200" height="103" as="geometry">
            <mxRectangle x="530" y="40" width="160" height="26" as="alternateBounds" />
          </mxGeometry>
        </mxCell>
        <mxCell id="3VQRC6T0D-EXzDeNE1l7-1" value="static getEventType ()" style="text;align=left;verticalAlign=top;spacingLeft=4;spacingRight=4;overflow=hidden;rotatable=0;points=[[0,0.5],[1,0.5]];portConstraint=eastwest;rounded=0;shadow=0;html=0;fontSize=16;" parent="3VQRC6T0D-EXzDeNE1l7-0" vertex="1">
          <mxGeometry y="30" width="200" height="26" as="geometry" />
        </mxCell>
        <mxCell id="3VQRC6T0D-EXzDeNE1l7-2" value="" style="endArrow=block;endSize=10;endFill=0;shadow=0;strokeWidth=1;rounded=0;edgeStyle=elbowEdgeStyle;elbow=vertical;" parent="WIyWlLk6GJQsqaUBKTNV-1" source="ieJgah1LAaL9jYKs5DkF-0" edge="1">
          <mxGeometry width="160" relative="1" as="geometry">
            <mxPoint x="350" y="683" as="sourcePoint" />
            <mxPoint x="580" y="187" as="targetPoint" />
            <Array as="points">
              <mxPoint x="370" y="207" />
            </Array>
          </mxGeometry>
        </mxCell>
        <mxCell id="3VQRC6T0D-EXzDeNE1l7-4" value="" style="endArrow=block;endSize=10;endFill=0;shadow=0;strokeWidth=1;rounded=0;edgeStyle=elbowEdgeStyle;elbow=vertical;exitX=0.5;exitY=0;exitDx=0;exitDy=0;" parent="WIyWlLk6GJQsqaUBKTNV-1" source="3VQRC6T0D-EXzDeNE1l7-0" edge="1">
          <mxGeometry width="160" relative="1" as="geometry">
            <mxPoint x="160" y="267" as="sourcePoint" />
            <mxPoint x="630" y="187" as="targetPoint" />
            <Array as="points">
              <mxPoint x="510" y="227" />
            </Array>
          </mxGeometry>
        </mxCell>
        <mxCell id="3VQRC6T0D-EXzDeNE1l7-5" value="Command Event" style="swimlane;fontStyle=2;align=center;verticalAlign=top;childLayout=stackLayout;horizontal=1;startSize=30;horizontalStack=0;resizeParent=1;resizeLast=0;collapsible=1;marginBottom=0;rounded=0;shadow=0;strokeWidth=1;fontSize=20;" parent="WIyWlLk6GJQsqaUBKTNV-1" vertex="1">
          <mxGeometry x="640" y="257" width="200" height="120" as="geometry">
            <mxRectangle x="530" y="40" width="160" height="26" as="alternateBounds" />
          </mxGeometry>
        </mxCell>
        <mxCell id="3VQRC6T0D-EXzDeNE1l7-6" value="static eventType ()" style="text;align=left;verticalAlign=top;spacingLeft=4;spacingRight=4;overflow=hidden;rotatable=0;points=[[0,0.5],[1,0.5]];portConstraint=eastwest;rounded=0;shadow=0;html=0;fontSize=16;" parent="3VQRC6T0D-EXzDeNE1l7-5" vertex="1">
          <mxGeometry y="30" width="200" height="26" as="geometry" />
        </mxCell>
        <mxCell id="3VQRC6T0D-EXzDeNE1l7-7" value="eventSubtype ()" style="text;align=left;verticalAlign=top;spacingLeft=4;spacingRight=4;overflow=hidden;rotatable=0;points=[[0,0.5],[1,0.5]];portConstraint=eastwest;rounded=0;shadow=0;html=0;fontSize=16;" parent="3VQRC6T0D-EXzDeNE1l7-5" vertex="1">
          <mxGeometry y="56" width="200" height="26" as="geometry" />
        </mxCell>
        <mxCell id="3VQRC6T0D-EXzDeNE1l7-8" value="eventData" style="text;align=left;verticalAlign=top;spacingLeft=4;spacingRight=4;overflow=hidden;rotatable=0;points=[[0,0.5],[1,0.5]];portConstraint=eastwest;rounded=0;shadow=0;html=0;fontSize=16;" parent="3VQRC6T0D-EXzDeNE1l7-5" vertex="1">
          <mxGeometry y="82" width="200" height="26" as="geometry" />
        </mxCell>
        <mxCell id="3VQRC6T0D-EXzDeNE1l7-9" value="" style="endArrow=block;endSize=10;endFill=0;shadow=0;strokeWidth=1;rounded=0;edgeStyle=elbowEdgeStyle;elbow=vertical;exitX=0.5;exitY=0;exitDx=0;exitDy=0;entryX=0.75;entryY=1;entryDx=0;entryDy=0;" parent="WIyWlLk6GJQsqaUBKTNV-1" source="3VQRC6T0D-EXzDeNE1l7-5" target="zkfFHV4jXpPFQw0GAbJ--0" edge="1">
          <mxGeometry width="160" relative="1" as="geometry">
            <mxPoint x="415" y="267" as="sourcePoint" />
            <mxPoint x="640" y="197" as="targetPoint" />
            <Array as="points">
              <mxPoint x="650" y="227" />
            </Array>
          </mxGeometry>
        </mxCell>
        <mxCell id="3VQRC6T0D-EXzDeNE1l7-11" value="EventData" style="swimlane;fontStyle=2;align=center;verticalAlign=top;childLayout=stackLayout;horizontal=1;startSize=30;horizontalStack=0;resizeParent=1;resizeLast=0;collapsible=1;marginBottom=0;rounded=0;shadow=0;strokeWidth=1;fontSize=20;" parent="WIyWlLk6GJQsqaUBKTNV-1" vertex="1">
          <mxGeometry x="470" y="427" width="200" height="100" as="geometry">
            <mxRectangle x="530" y="40" width="160" height="26" as="alternateBounds" />
          </mxGeometry>
        </mxCell>
        <mxCell id="3VQRC6T0D-EXzDeNE1l7-12" value="entityId ()" style="text;align=left;verticalAlign=top;spacingLeft=4;spacingRight=4;overflow=hidden;rotatable=0;points=[[0,0.5],[1,0.5]];portConstraint=eastwest;rounded=0;shadow=0;html=0;fontSize=16;" parent="3VQRC6T0D-EXzDeNE1l7-11" vertex="1">
          <mxGeometry y="30" width="200" height="26" as="geometry" />
        </mxCell>
        <mxCell id="3VQRC6T0D-EXzDeNE1l7-13" value="virtual type () = 0" style="text;align=left;verticalAlign=top;spacingLeft=4;spacingRight=4;overflow=hidden;rotatable=0;points=[[0,0.5],[1,0.5]];portConstraint=eastwest;rounded=0;shadow=0;html=0;fontSize=16;" parent="3VQRC6T0D-EXzDeNE1l7-11" vertex="1">
          <mxGeometry y="56" width="200" height="26" as="geometry" />
        </mxCell>
        <mxCell id="3VQRC6T0D-EXzDeNE1l7-15" style="edgeStyle=orthogonalEdgeStyle;rounded=0;orthogonalLoop=1;jettySize=auto;html=1;endArrow=open;endFill=0;strokeWidth=1;" parent="WIyWlLk6GJQsqaUBKTNV-1" source="3VQRC6T0D-EXzDeNE1l7-8" target="3VQRC6T0D-EXzDeNE1l7-11" edge="1">
          <mxGeometry relative="1" as="geometry">
            <mxPoint x="480" y="407" as="targetPoint" />
            <Array as="points">
              <mxPoint x="570" y="357" />
            </Array>
          </mxGeometry>
        </mxCell>
        <mxCell id="3VQRC6T0D-EXzDeNE1l7-16" value="EntityData" style="swimlane;fontStyle=2;align=center;verticalAlign=top;childLayout=stackLayout;horizontal=1;startSize=30;horizontalStack=0;resizeParent=1;resizeLast=0;collapsible=1;marginBottom=0;rounded=0;shadow=0;strokeWidth=1;fontSize=20;" parent="WIyWlLk6GJQsqaUBKTNV-1" vertex="1">
          <mxGeometry x="80" y="617" width="180" height="210" as="geometry">
            <mxRectangle x="530" y="40" width="160" height="26" as="alternateBounds" />
          </mxGeometry>
        </mxCell>
        <mxCell id="3VQRC6T0D-EXzDeNE1l7-17" value="type ()" style="text;align=left;verticalAlign=top;spacingLeft=4;spacingRight=4;overflow=hidden;rotatable=0;points=[[0,0.5],[1,0.5]];portConstraint=eastwest;rounded=0;shadow=0;html=0;fontSize=16;" parent="3VQRC6T0D-EXzDeNE1l7-16" vertex="1">
          <mxGeometry y="30" width="180" height="26" as="geometry" />
        </mxCell>
        <mxCell id="3VQRC6T0D-EXzDeNE1l7-18" value="eventCommand ()" style="text;align=left;verticalAlign=top;spacingLeft=4;spacingRight=4;overflow=hidden;rotatable=0;points=[[0,0.5],[1,0.5]];portConstraint=eastwest;rounded=0;shadow=0;html=0;fontSize=16;" parent="3VQRC6T0D-EXzDeNE1l7-16" vertex="1">
          <mxGeometry y="56" width="180" height="26" as="geometry" />
        </mxCell>
        <mxCell id="3VQRC6T0D-EXzDeNE1l7-19" value="    ADD&#xa;    REMOVE&#xa;    SUBSCRIBE&#xa;    UNSUBSCRIBE&#xa;" style="text;align=left;verticalAlign=top;spacingLeft=4;spacingRight=4;overflow=hidden;rotatable=0;points=[[0,0.5],[1,0.5]];portConstraint=eastwest;rounded=0;shadow=0;html=0;fontSize=16;" parent="3VQRC6T0D-EXzDeNE1l7-16" vertex="1">
          <mxGeometry y="82" width="180" height="88" as="geometry" />
        </mxCell>
        <mxCell id="3VQRC6T0D-EXzDeNE1l7-20" value="ComponentData" style="swimlane;fontStyle=2;align=center;verticalAlign=top;childLayout=stackLayout;horizontal=1;startSize=30;horizontalStack=0;resizeParent=1;resizeLast=0;collapsible=1;marginBottom=0;rounded=0;shadow=0;strokeWidth=1;fontSize=20;" parent="WIyWlLk6GJQsqaUBKTNV-1" vertex="1">
          <mxGeometry x="280" y="617" width="180" height="210" as="geometry">
            <mxRectangle x="530" y="40" width="160" height="26" as="alternateBounds" />
          </mxGeometry>
        </mxCell>
        <mxCell id="3VQRC6T0D-EXzDeNE1l7-22" value="type ()" style="text;align=left;verticalAlign=top;spacingLeft=4;spacingRight=4;overflow=hidden;rotatable=0;points=[[0,0.5],[1,0.5]];portConstraint=eastwest;rounded=0;shadow=0;html=0;fontSize=16;" parent="3VQRC6T0D-EXzDeNE1l7-20" vertex="1">
          <mxGeometry y="30" width="180" height="26" as="geometry" />
        </mxCell>
        <mxCell id="3VQRC6T0D-EXzDeNE1l7-21" value="eventCommand ()" style="text;align=left;verticalAlign=top;spacingLeft=4;spacingRight=4;overflow=hidden;rotatable=0;points=[[0,0.5],[1,0.5]];portConstraint=eastwest;rounded=0;shadow=0;html=0;fontSize=16;" parent="3VQRC6T0D-EXzDeNE1l7-20" vertex="1">
          <mxGeometry y="56" width="180" height="26" as="geometry" />
        </mxCell>
        <mxCell id="3VQRC6T0D-EXzDeNE1l7-23" value="    ADD&#xa;    REMOVE&#xa;    SET&#xa;    FETCH" style="text;align=left;verticalAlign=top;spacingLeft=4;spacingRight=4;overflow=hidden;rotatable=0;points=[[0,0.5],[1,0.5]];portConstraint=eastwest;rounded=0;shadow=0;html=0;fontSize=16;" parent="3VQRC6T0D-EXzDeNE1l7-20" vertex="1">
          <mxGeometry y="82" width="180" height="88" as="geometry" />
        </mxCell>
        <mxCell id="3VQRC6T0D-EXzDeNE1l7-33" value="componentName ()" style="text;align=left;verticalAlign=top;spacingLeft=4;spacingRight=4;overflow=hidden;rotatable=0;points=[[0,0.5],[1,0.5]];portConstraint=eastwest;rounded=0;shadow=0;html=0;fontSize=16;" parent="3VQRC6T0D-EXzDeNE1l7-20" vertex="1">
          <mxGeometry y="170" width="180" height="26" as="geometry" />
        </mxCell>
        <mxCell id="3VQRC6T0D-EXzDeNE1l7-24" value="IntrospectionData" style="swimlane;fontStyle=2;align=center;verticalAlign=top;childLayout=stackLayout;horizontal=1;startSize=30;horizontalStack=0;resizeParent=1;resizeLast=0;collapsible=1;marginBottom=0;rounded=0;shadow=0;strokeWidth=1;fontSize=20;" parent="WIyWlLk6GJQsqaUBKTNV-1" vertex="1">
          <mxGeometry x="480" y="617" width="180" height="120" as="geometry">
            <mxRectangle x="530" y="40" width="160" height="26" as="alternateBounds" />
          </mxGeometry>
        </mxCell>
        <mxCell id="3VQRC6T0D-EXzDeNE1l7-25" value="type ()" style="text;align=left;verticalAlign=top;spacingLeft=4;spacingRight=4;overflow=hidden;rotatable=0;points=[[0,0.5],[1,0.5]];portConstraint=eastwest;rounded=0;shadow=0;html=0;fontSize=16;" parent="3VQRC6T0D-EXzDeNE1l7-24" vertex="1">
          <mxGeometry y="30" width="180" height="26" as="geometry" />
        </mxCell>
        <mxCell id="3VQRC6T0D-EXzDeNE1l7-28" value="ErrorData" style="swimlane;fontStyle=2;align=center;verticalAlign=top;childLayout=stackLayout;horizontal=1;startSize=30;horizontalStack=0;resizeParent=1;resizeLast=0;collapsible=1;marginBottom=0;rounded=0;shadow=0;strokeWidth=1;fontSize=20;" parent="WIyWlLk6GJQsqaUBKTNV-1" vertex="1">
          <mxGeometry x="920" y="617" width="200" height="140" as="geometry">
            <mxRectangle x="530" y="40" width="160" height="26" as="alternateBounds" />
          </mxGeometry>
        </mxCell>
        <mxCell id="3VQRC6T0D-EXzDeNE1l7-29" value="type ()" style="text;align=left;verticalAlign=top;spacingLeft=4;spacingRight=4;overflow=hidden;rotatable=0;points=[[0,0.5],[1,0.5]];portConstraint=eastwest;rounded=0;shadow=0;html=0;fontSize=16;" parent="3VQRC6T0D-EXzDeNE1l7-28" vertex="1">
          <mxGeometry y="30" width="200" height="26" as="geometry" />
        </mxCell>
        <mxCell id="3VQRC6T0D-EXzDeNE1l7-30" value="errorDescription ()" style="text;align=left;verticalAlign=top;spacingLeft=4;spacingRight=4;overflow=hidden;rotatable=0;points=[[0,0.5],[1,0.5]];portConstraint=eastwest;rounded=0;shadow=0;html=0;fontSize=16;" parent="3VQRC6T0D-EXzDeNE1l7-28" vertex="1">
          <mxGeometry y="56" width="200" height="26" as="geometry" />
        </mxCell>
        <mxCell id="3VQRC6T0D-EXzDeNE1l7-31" value="originalDataType ()" style="text;align=left;verticalAlign=top;spacingLeft=4;spacingRight=4;overflow=hidden;rotatable=0;points=[[0,0.5],[1,0.5]];portConstraint=eastwest;rounded=0;shadow=0;html=0;fontSize=16;" parent="3VQRC6T0D-EXzDeNE1l7-28" vertex="1">
          <mxGeometry y="82" width="200" height="26" as="geometry" />
        </mxCell>
        <mxCell id="3VQRC6T0D-EXzDeNE1l7-35" value="originalData ()" style="text;align=left;verticalAlign=top;spacingLeft=4;spacingRight=4;overflow=hidden;rotatable=0;points=[[0,0.5],[1,0.5]];portConstraint=eastwest;rounded=0;shadow=0;html=0;fontSize=16;" parent="3VQRC6T0D-EXzDeNE1l7-28" vertex="1">
          <mxGeometry y="108" width="200" height="26" as="geometry" />
        </mxCell>
        <mxCell id="3VQRC6T0D-EXzDeNE1l7-34" value="&lt;u&gt;VEIN framework&lt;/u&gt;" style="text;strokeColor=none;fillColor=none;html=1;fontSize=24;fontStyle=1;verticalAlign=middle;align=center;" parent="WIyWlLk6GJQsqaUBKTNV-1" vertex="1">
          <mxGeometry x="490" y="50" width="230" height="40" as="geometry" />
        </mxCell>
        <mxCell id="3VQRC6T0D-EXzDeNE1l7-36" value="RemoteProcedureData" style="swimlane;fontStyle=2;align=center;verticalAlign=top;childLayout=stackLayout;horizontal=1;startSize=30;horizontalStack=0;resizeParent=1;resizeLast=0;collapsible=1;marginBottom=0;rounded=0;shadow=0;strokeWidth=1;fontSize=20;" parent="WIyWlLk6GJQsqaUBKTNV-1" vertex="1">
          <mxGeometry x="680" y="617" width="220" height="190" as="geometry">
            <mxRectangle x="530" y="40" width="160" height="26" as="alternateBounds" />
          </mxGeometry>
        </mxCell>
        <mxCell id="3VQRC6T0D-EXzDeNE1l7-37" value="type ()" style="text;align=left;verticalAlign=top;spacingLeft=4;spacingRight=4;overflow=hidden;rotatable=0;points=[[0,0.5],[1,0.5]];portConstraint=eastwest;rounded=0;shadow=0;html=0;fontSize=16;" parent="3VQRC6T0D-EXzDeNE1l7-36" vertex="1">
          <mxGeometry y="30" width="220" height="26" as="geometry" />
        </mxCell>
        <mxCell id="3VQRC6T0D-EXzDeNE1l7-38" value="command ()" style="text;align=left;verticalAlign=top;spacingLeft=4;spacingRight=4;overflow=hidden;rotatable=0;points=[[0,0.5],[1,0.5]];portConstraint=eastwest;rounded=0;shadow=0;html=0;fontSize=16;" parent="3VQRC6T0D-EXzDeNE1l7-36" vertex="1">
          <mxGeometry y="56" width="220" height="26" as="geometry" />
        </mxCell>
        <mxCell id="3VQRC6T0D-EXzDeNE1l7-39" value="    CALL&#xa;    REGISTER&#xa;    RESULT&#xa;    PROGRESS&#xa;    CANCELLATION&#xa;" style="text;align=left;verticalAlign=top;spacingLeft=4;spacingRight=4;overflow=hidden;rotatable=0;points=[[0,0.5],[1,0.5]];portConstraint=eastwest;rounded=0;shadow=0;html=0;fontSize=16;" parent="3VQRC6T0D-EXzDeNE1l7-36" vertex="1">
          <mxGeometry y="82" width="220" height="108" as="geometry" />
        </mxCell>
        <mxCell id="3VQRC6T0D-EXzDeNE1l7-41" value="" style="endArrow=block;endSize=10;endFill=0;shadow=0;strokeWidth=1;rounded=0;edgeStyle=elbowEdgeStyle;elbow=vertical;exitX=0.5;exitY=0;exitDx=0;exitDy=0;" parent="WIyWlLk6GJQsqaUBKTNV-1" source="3VQRC6T0D-EXzDeNE1l7-16" edge="1">
          <mxGeometry width="160" relative="1" as="geometry">
            <mxPoint x="160" y="607" as="sourcePoint" />
            <mxPoint x="490" y="527" as="targetPoint" />
            <Array as="points">
              <mxPoint x="330" y="557" />
            </Array>
          </mxGeometry>
        </mxCell>
        <mxCell id="3VQRC6T0D-EXzDeNE1l7-42" value="" style="endArrow=block;endSize=10;endFill=0;shadow=0;strokeWidth=1;rounded=0;edgeStyle=elbowEdgeStyle;elbow=vertical;exitX=0.5;exitY=0;exitDx=0;exitDy=0;" parent="WIyWlLk6GJQsqaUBKTNV-1" source="3VQRC6T0D-EXzDeNE1l7-20" edge="1">
          <mxGeometry width="160" relative="1" as="geometry">
            <mxPoint x="170" y="627" as="sourcePoint" />
            <mxPoint x="530" y="527" as="targetPoint" />
            <Array as="points">
              <mxPoint x="440" y="577" />
            </Array>
          </mxGeometry>
        </mxCell>
        <mxCell id="3VQRC6T0D-EXzDeNE1l7-43" value="" style="endArrow=block;endSize=10;endFill=0;shadow=0;strokeWidth=1;rounded=0;edgeStyle=elbowEdgeStyle;elbow=vertical;exitX=0.5;exitY=0;exitDx=0;exitDy=0;" parent="WIyWlLk6GJQsqaUBKTNV-1" source="3VQRC6T0D-EXzDeNE1l7-24" edge="1">
          <mxGeometry width="160" relative="1" as="geometry">
            <mxPoint x="370" y="627" as="sourcePoint" />
            <mxPoint x="570" y="527" as="targetPoint" />
            <Array as="points">
              <mxPoint x="350" y="577" />
            </Array>
          </mxGeometry>
        </mxCell>
        <mxCell id="3VQRC6T0D-EXzDeNE1l7-44" value="" style="endArrow=block;endSize=10;endFill=0;shadow=0;strokeWidth=1;rounded=0;edgeStyle=elbowEdgeStyle;elbow=vertical;" parent="WIyWlLk6GJQsqaUBKTNV-1" source="3VQRC6T0D-EXzDeNE1l7-36" edge="1">
          <mxGeometry width="160" relative="1" as="geometry">
            <mxPoint x="591" y="618" as="sourcePoint" />
            <mxPoint x="611" y="528" as="targetPoint" />
            <Array as="points">
              <mxPoint x="381" y="578" />
            </Array>
          </mxGeometry>
        </mxCell>
        <mxCell id="3VQRC6T0D-EXzDeNE1l7-46" value="" style="endArrow=block;endSize=10;endFill=0;shadow=0;strokeWidth=1;rounded=0;edgeStyle=elbowEdgeStyle;elbow=vertical;" parent="WIyWlLk6GJQsqaUBKTNV-1" source="3VQRC6T0D-EXzDeNE1l7-28" edge="1">
          <mxGeometry width="160" relative="1" as="geometry">
            <mxPoint x="810" y="627" as="sourcePoint" />
            <mxPoint x="650" y="527" as="targetPoint" />
            <Array as="points">
              <mxPoint x="820" y="557" />
            </Array>
          </mxGeometry>
        </mxCell>
        <mxCell id="3VQRC6T0D-EXzDeNE1l7-47" value="&lt;div style=&quot;font-size: 16px;&quot; align=&quot;left&quot;&gt;&lt;font color=&quot;#808080&quot;&gt;&lt;br&gt;&lt;/font&gt;&lt;ul style=&quot;font-size: 16px;&quot;&gt;&lt;li&gt;&lt;font style=&quot;font-size: 16px;&quot; color=&quot;#808080&quot;&gt;static&lt;/font&gt;&lt;/li&gt;&lt;li&gt;&lt;font style=&quot;font-size: 16px;&quot; color=&quot;#808080&quot;&gt;&amp;nbsp;QEvent register EventType&lt;/font&gt;&lt;/li&gt;&lt;li&gt;&lt;font style=&quot;font-size: 16px;&quot; color=&quot;#808080&quot;&gt;--&amp;gt; CommandEvent&lt;br&gt;--&amp;gt; ProtocolEvent&lt;br&gt;--&amp;gt; NetworkStatusEvent&lt;br&gt;&lt;/font&gt;&lt;/li&gt;&lt;/ul&gt;&lt;/div&gt;" style="rounded=1;whiteSpace=wrap;html=1;align=left;strokeColor=#77767B;" parent="WIyWlLk6GJQsqaUBKTNV-1" vertex="1">
          <mxGeometry x="880" y="187" width="249" height="143" as="geometry" />
        </mxCell>
        <mxCell id="3VQRC6T0D-EXzDeNE1l7-48" value="" style="line;html=1;strokeWidth=1;align=left;verticalAlign=middle;spacingTop=-1;spacingLeft=3;spacingRight=3;rotatable=0;labelPosition=right;points=[];portConstraint=eastwest;strokeColor=#9a9996;" parent="WIyWlLk6GJQsqaUBKTNV-1" vertex="1">
          <mxGeometry x="880" y="212" width="249" height="8" as="geometry" />
        </mxCell>
        <mxCell id="3VQRC6T0D-EXzDeNE1l7-49" value="eventType" style="text;align=left;verticalAlign=top;spacingLeft=4;spacingRight=4;overflow=hidden;rotatable=0;points=[[0,0.5],[1,0.5]];portConstraint=eastwest;rounded=0;shadow=0;html=0;fontSize=16;strokeColor=none;" parent="WIyWlLk6GJQsqaUBKTNV-1" vertex="1">
          <mxGeometry x="904.5" y="187" width="200" height="26" as="geometry" />
        </mxCell>
        <mxCell id="3VQRC6T0D-EXzDeNE1l7-50" value="&lt;div style=&quot;font-size: 16px;&quot; align=&quot;left&quot;&gt;&lt;font color=&quot;#808080&quot;&gt;&lt;br&gt;&lt;/font&gt;&lt;ul style=&quot;font-size: 16px;&quot;&gt;&lt;li&gt;&lt;font style=&quot;font-size: 16px;&quot; color=&quot;#808080&quot;&gt;NOTIFICATION&lt;/font&gt;&lt;/li&gt;&lt;li&gt;&lt;font style=&quot;font-size: 16px;&quot; color=&quot;#808080&quot;&gt;TRANSACTION&lt;br&gt;&amp;nbsp;&amp;nbsp; client --&amp;gt; server&lt;br&gt;&lt;/font&gt;&lt;/li&gt;&lt;/ul&gt;&lt;/div&gt;" style="rounded=1;whiteSpace=wrap;html=1;align=left;strokeColor=#9a9996;" parent="WIyWlLk6GJQsqaUBKTNV-1" vertex="1">
          <mxGeometry x="880" y="340" width="249" height="120" as="geometry" />
        </mxCell>
        <mxCell id="3VQRC6T0D-EXzDeNE1l7-51" value="" style="line;html=1;strokeWidth=1;align=left;verticalAlign=middle;spacingTop=-1;spacingLeft=3;spacingRight=3;rotatable=0;labelPosition=right;points=[];portConstraint=eastwest;strokeColor=#9a9996;" parent="WIyWlLk6GJQsqaUBKTNV-1" vertex="1">
          <mxGeometry x="880" y="369" width="249" height="8" as="geometry" />
        </mxCell>
        <mxCell id="3VQRC6T0D-EXzDeNE1l7-52" value="eventSubtype" style="text;align=left;verticalAlign=top;spacingLeft=4;spacingRight=4;overflow=hidden;rotatable=0;points=[[0,0.5],[1,0.5]];portConstraint=eastwest;rounded=0;shadow=0;html=0;fontSize=16;strokeColor=none;" parent="WIyWlLk6GJQsqaUBKTNV-1" vertex="1">
          <mxGeometry x="900" y="340" width="200" height="26" as="geometry" />
        </mxCell>
        <mxCell id="3VQRC6T0D-EXzDeNE1l7-53" value="&lt;div align=&quot;left&quot;&gt;&lt;span style=&quot;font-size: 16px;&quot;&gt;&lt;span style=&quot;font-weight: normal;&quot;&gt;State: 2023-08-01&lt;/span&gt;&lt;br&gt;&lt;/span&gt;&lt;/div&gt;" style="text;strokeColor=none;fillColor=none;html=1;fontSize=24;fontStyle=1;verticalAlign=middle;align=left;" parent="WIyWlLk6GJQsqaUBKTNV-1" vertex="1">
          <mxGeometry x="979" y="57" width="150" height="40" as="geometry" />
        </mxCell>
        <mxCell id="3VQRC6T0D-EXzDeNE1l7-60" value="" style="endArrow=classic;html=1;rounded=0;exitX=0.8;exitY=0.885;exitDx=0;exitDy=0;exitPerimeter=0;entryX=0.07;entryY=0.494;entryDx=0;entryDy=0;entryPerimeter=0;strokeColor=#9a9996;dashed=1;dashPattern=8 8;" parent="WIyWlLk6GJQsqaUBKTNV-1" edge="1">
          <mxGeometry width="50" height="50" relative="1" as="geometry">
            <mxPoint x="800" y="301.01" as="sourcePoint" />
            <mxPoint x="897.4300000000001" y="206.952" as="targetPoint" />
          </mxGeometry>
        </mxCell>
        <mxCell id="3VQRC6T0D-EXzDeNE1l7-61" value="" style="endArrow=classic;html=1;rounded=0;exitX=0.8;exitY=0.885;exitDx=0;exitDy=0;exitPerimeter=0;entryX=0.04;entryY=0.083;entryDx=0;entryDy=0;entryPerimeter=0;strokeColor=#9a9996;dashed=1;dashPattern=8 8;" parent="WIyWlLk6GJQsqaUBKTNV-1" edge="1">
          <mxGeometry width="50" height="50" relative="1" as="geometry">
            <mxPoint x="791" y="334.01" as="sourcePoint" />
            <mxPoint x="894.96" y="353.9599999999999" as="targetPoint" />
          </mxGeometry>
        </mxCell>
        <mxCell id="3VQRC6T0D-EXzDeNE1l7-62" value="" style="endArrow=none;html=1;rounded=0;" parent="WIyWlLk6GJQsqaUBKTNV-1" edge="1">
          <mxGeometry width="50" height="50" relative="1" as="geometry">
            <mxPoint x="62" y="886" as="sourcePoint" />
            <mxPoint x="1072" y="886" as="targetPoint" />
          </mxGeometry>
        </mxCell>
        <mxCell id="3VQRC6T0D-EXzDeNE1l7-73" style="rounded=0;orthogonalLoop=1;jettySize=auto;html=1;entryX=0;entryY=0.5;entryDx=0;entryDy=0;endArrow=open;endFill=0;exitX=1;exitY=0.5;exitDx=0;exitDy=0;" parent="WIyWlLk6GJQsqaUBKTNV-1" source="3VQRC6T0D-EXzDeNE1l7-65" target="3VQRC6T0D-EXzDeNE1l7-67" edge="1">
          <mxGeometry relative="1" as="geometry" />
        </mxCell>
        <mxCell id="3VQRC6T0D-EXzDeNE1l7-65" value="Event Handler" style="swimlane;fontStyle=2;align=center;verticalAlign=top;childLayout=stackLayout;horizontal=1;startSize=30;horizontalStack=0;resizeParent=1;resizeLast=0;collapsible=1;marginBottom=0;rounded=0;shadow=0;strokeWidth=1;fontSize=20;" parent="WIyWlLk6GJQsqaUBKTNV-1" vertex="1">
          <mxGeometry x="200" y="1010" width="180" height="120" as="geometry">
            <mxRectangle x="530" y="40" width="160" height="26" as="alternateBounds" />
          </mxGeometry>
        </mxCell>
        <mxCell id="3VQRC6T0D-EXzDeNE1l7-66" value="customEvent --&gt;" style="text;align=left;verticalAlign=top;spacingLeft=4;spacingRight=4;overflow=hidden;rotatable=0;points=[[0,0.5],[1,0.5]];portConstraint=eastwest;rounded=0;shadow=0;html=0;fontSize=16;" parent="3VQRC6T0D-EXzDeNE1l7-65" vertex="1">
          <mxGeometry y="30" width="180" height="26" as="geometry" />
        </mxCell>
        <mxCell id="3VQRC6T0D-EXzDeNE1l7-67" value="Event System" style="swimlane;fontStyle=2;align=center;verticalAlign=top;childLayout=stackLayout;horizontal=1;startSize=30;horizontalStack=0;resizeParent=1;resizeLast=0;collapsible=1;marginBottom=0;rounded=0;shadow=0;strokeWidth=1;fontSize=20;" parent="WIyWlLk6GJQsqaUBKTNV-1" vertex="1">
          <mxGeometry x="520" y="960" width="160" height="60" as="geometry">
            <mxRectangle x="530" y="40" width="160" height="26" as="alternateBounds" />
          </mxGeometry>
        </mxCell>
        <mxCell id="3VQRC6T0D-EXzDeNE1l7-68" value="SigSendEvent" style="text;align=left;verticalAlign=top;spacingLeft=4;spacingRight=4;overflow=hidden;rotatable=0;points=[[0,0.5],[1,0.5]];portConstraint=eastwest;rounded=0;shadow=0;html=0;fontSize=16;" parent="3VQRC6T0D-EXzDeNE1l7-67" vertex="1">
          <mxGeometry y="30" width="160" height="26" as="geometry" />
        </mxCell>
        <mxCell id="3VQRC6T0D-EXzDeNE1l7-69" value="Event System" style="swimlane;fontStyle=2;align=center;verticalAlign=top;childLayout=stackLayout;horizontal=1;startSize=30;horizontalStack=0;resizeParent=1;resizeLast=0;collapsible=1;marginBottom=0;rounded=0;shadow=0;strokeWidth=1;fontSize=20;" parent="WIyWlLk6GJQsqaUBKTNV-1" vertex="1">
          <mxGeometry x="520" y="1040" width="160" height="60" as="geometry">
            <mxRectangle x="530" y="40" width="160" height="26" as="alternateBounds" />
          </mxGeometry>
        </mxCell>
        <mxCell id="3VQRC6T0D-EXzDeNE1l7-70" value="SigSendEvent" style="text;align=left;verticalAlign=top;spacingLeft=4;spacingRight=4;overflow=hidden;rotatable=0;points=[[0,0.5],[1,0.5]];portConstraint=eastwest;rounded=0;shadow=0;html=0;fontSize=16;" parent="3VQRC6T0D-EXzDeNE1l7-69" vertex="1">
          <mxGeometry y="30" width="160" height="26" as="geometry" />
        </mxCell>
        <mxCell id="3VQRC6T0D-EXzDeNE1l7-71" value="Event System" style="swimlane;fontStyle=2;align=center;verticalAlign=top;childLayout=stackLayout;horizontal=1;startSize=30;horizontalStack=0;resizeParent=1;resizeLast=0;collapsible=1;marginBottom=0;rounded=0;shadow=0;strokeWidth=1;fontSize=20;" parent="WIyWlLk6GJQsqaUBKTNV-1" vertex="1">
          <mxGeometry x="520" y="1120" width="160" height="60" as="geometry">
            <mxRectangle x="530" y="40" width="160" height="26" as="alternateBounds" />
          </mxGeometry>
        </mxCell>
        <mxCell id="3VQRC6T0D-EXzDeNE1l7-72" value="SigSendEvent" style="text;align=left;verticalAlign=top;spacingLeft=4;spacingRight=4;overflow=hidden;rotatable=0;points=[[0,0.5],[1,0.5]];portConstraint=eastwest;rounded=0;shadow=0;html=0;fontSize=16;" parent="3VQRC6T0D-EXzDeNE1l7-71" vertex="1">
          <mxGeometry y="30" width="160" height="26" as="geometry" />
        </mxCell>
        <mxCell id="3VQRC6T0D-EXzDeNE1l7-74" style="rounded=0;orthogonalLoop=1;jettySize=auto;html=1;endArrow=open;endFill=0;exitX=1;exitY=0.5;exitDx=0;exitDy=0;" parent="WIyWlLk6GJQsqaUBKTNV-1" source="3VQRC6T0D-EXzDeNE1l7-65" edge="1">
          <mxGeometry relative="1" as="geometry">
            <mxPoint x="390" y="1080" as="sourcePoint" />
            <mxPoint x="520" y="1070" as="targetPoint" />
          </mxGeometry>
        </mxCell>
        <mxCell id="3VQRC6T0D-EXzDeNE1l7-75" style="rounded=0;orthogonalLoop=1;jettySize=auto;html=1;endArrow=open;endFill=0;exitX=1;exitY=0.5;exitDx=0;exitDy=0;" parent="WIyWlLk6GJQsqaUBKTNV-1" source="3VQRC6T0D-EXzDeNE1l7-65" edge="1">
          <mxGeometry relative="1" as="geometry">
            <mxPoint x="400" y="1090" as="sourcePoint" />
            <mxPoint x="520" y="1150" as="targetPoint" />
          </mxGeometry>
        </mxCell>
        <mxCell id="3VQRC6T0D-EXzDeNE1l7-77" value="" style="endArrow=classic;html=1;rounded=0;strokeWidth=2;" parent="WIyWlLk6GJQsqaUBKTNV-1" edge="1">
          <mxGeometry width="50" height="50" relative="1" as="geometry">
            <mxPoint x="430" y="1133" as="sourcePoint" />
            <mxPoint x="420" y="1173" as="targetPoint" />
            <Array as="points">
              <mxPoint x="420" y="1153" />
              <mxPoint x="430" y="1153" />
            </Array>
          </mxGeometry>
        </mxCell>
        <mxCell id="3VQRC6T0D-EXzDeNE1l7-78" value="&lt;div style=&quot;font-size: 20px;&quot; align=&quot;center&quot;&gt;&lt;font style=&quot;font-size: 20px;&quot;&gt;accept&lt;/font&gt;&lt;/div&gt;" style="text;strokeColor=none;fillColor=none;html=1;fontSize=24;fontStyle=1;verticalAlign=middle;align=center;" parent="WIyWlLk6GJQsqaUBKTNV-1" vertex="1">
          <mxGeometry x="432" y="1139" width="70" height="26" as="geometry" />
        </mxCell>
      </root>
    </mxGraphModel>
  </diagram>
</mxfile>
